<svg id="Layer_1" enable-background="new 0 0 497 497" height="512" viewBox="0 0 497 497" width="512" xmlns="http://www.w3.org/2000/svg"><g><g><path d="m108.684 326.134c-11.888 0-22.554-7.616-26.542-18.952l-80.871-235.314c-4.144-12.06 2.18-25.273 14.098-29.452 2.419-.845 4.935-1.275 7.472-1.275 9.712 0 18.382 6.24 21.573 15.528l56.639 164.807c1.046 3.044 3.904 5.086 7.112 5.086h.05c3.228-.022 6.083-2.107 7.093-5.18l53.934-163.978c3.113-9.465 11.819-15.824 21.668-15.824 2.441 0 4.859.396 7.186 1.177 5.79 1.944 10.486 6.052 13.226 11.569 2.745 5.533 3.194 11.815 1.261 17.688l-77.274 234.936c-3.824 11.364-14.442 19.09-26.409 19.184z" fill="#87dbff"/><g><path d="m211.322 54.325c-2.739-5.517-7.436-9.625-13.226-11.569-2.327-.782-4.745-1.177-7.186-1.177-5.657 0-10.931 2.106-14.991 5.686 2.209 1.948 4.046 4.33 5.402 7.06 2.745 5.533 3.194 11.815 1.261 17.688l-77.273 234.937c-2.106 6.259-6.28 11.404-11.599 14.789 4.395 2.798 9.553 4.395 14.974 4.395h.216c11.967-.094 22.585-7.82 26.409-19.184l77.274-234.938c1.933-5.872 1.484-12.154-1.261-17.687z" fill="#6bd3ff"/></g><path d="m403.258 455.859c-38.024 0-75.136-16.062-99.276-42.967-19.105-21.293 14.54-52.58 33.813-31.096 24.204 26.975 80.704 43.207 106.205 10.657 21.422-27.343-15.5-51.102-38.624-59.417-30.068-11.172-45.171-16.784-61.262-25.635-23.244-12.787-35.939-37.767-33.131-65.192 3.172-30.973 25.383-57.12 56.585-66.613 38.625-11.754 83.166-.7 113.677 25.219 21.809 18.512-6.841 53.131-29.336 35.453-.972-.781-24.119-19.111-52.621-19.111-19.818 0-40.76 9.221-42.869 29.82-2.381 23.237 37.559 35.146 63.988 43.027 29.702 8.856 59.507 26.934 71.651 57.006 13.549 33.551-2.093 70.657-30.695 90.649-16.793 11.737-37.428 18.2-58.105 18.2z" fill="#ff59ac"/><g fill="#fa46a0"><path d="m451.245 200.817c12.222 10.375 8.595 25.806-.913 34.258.898.657 1.446 1.09 1.577 1.195 22.495 17.678 51.145-16.941 29.336-35.453-26.02-22.104-62.24-33.383-96.297-28.939 24.288 3.05 47.855 13.273 66.297 28.939z"/><path d="m492.058 347.011c-12.144-30.072-41.949-48.15-71.651-57.006-26.429-7.88-66.369-19.789-63.988-43.027 1.589-15.522 13.872-24.58 28.308-28.104-4.881-1.063-10.065-1.716-15.439-1.716-19.818 0-40.76 9.221-42.869 29.82-2.381 23.237 37.559 35.146 63.988 43.027 29.702 8.856 59.507 26.934 71.651 57.006 13.549 33.551-2.093 70.657-30.695 90.649-13.035 9.11-28.387 15.025-44.275 17.224 5.349.638 10.75.975 16.17.975 20.677 0 41.312-6.463 58.104-18.199 28.603-19.991 44.245-57.098 30.696-90.649z"/><path d="m337.795 381.797c-9.467-10.553-22.398-8.369-30.845-.896.284.289.567.586.845.896 17.631 19.649 52.394 33.591 79.833 27.139-19.38-3.847-38.283-14.268-49.833-27.139z"/></g></g><g><g><ellipse cx="243.355" cy="233.989" fill="#fff6e0" rx="90.477" ry="91.384"/><g><g><path d="m252.077 110.075-61.574 147.733h47.603v100.094l58.101-147.733h-44.13z" fill="#ffea00"/></g></g><g><path d="m296.207 210.169h-40l-18.736 47.639h.635v100.094z" fill="#ffd900"/></g></g></g></g></svg>